<svg xmlns="http://www.w3.org/2000/svg" xmlns:xlink="http://www.w3.org/1999/xlink" width="500" zoomAndPan="magnify" viewBox="0 0 375 374.999991" height="500" preserveAspectRatio="xMidYMid meet" version="1.0"><defs><g/><clipPath id="46a50461b9"><path d="M 86 96.285156 L 163 96.285156 L 163 226 L 86 226 Z M 86 96.285156 " clip-rule="nonzero"/></clipPath><clipPath id="5d140e9724"><path d="M 95 113 L 223.667969 113 L 223.667969 196 L 95 196 Z M 95 113 " clip-rule="nonzero"/></clipPath></defs><rect x="-37.5" width="450" fill="#ffffff" y="-37.499999" height="449.999989" fill-opacity="1"/><rect x="-37.5" width="450" fill="#ffffff" y="-37.499999" height="449.999989" fill-opacity="1"/><path fill="#eb008b" d="M 70.742188 192.511719 C 61.867188 158.921875 73.039062 125.984375 96.527344 107.980469 L 101.503906 126.820312 C 83.058594 144.398438 74.859375 172.84375 82.511719 201.808594 C 87.691406 221.410156 99.214844 237.773438 113.929688 248.761719 C 93.679688 237.585938 77.355469 217.527344 70.742188 192.511719 Z M 70.742188 192.511719 " fill-opacity="1" fill-rule="evenodd"/><g clip-path="url(#46a50461b9)"><path fill="#00adee" d="M 92.632812 154.300781 C 104.632812 121.03125 132.632812 99.042969 162.128906 96.328125 L 155.394531 114.988281 C 130.265625 120.039062 107.265625 139.804688 96.917969 168.492188 C 89.914062 187.902344 89.949219 207.964844 95.664062 225.167969 C 85.53125 204.84375 83.695312 179.078125 92.632812 154.300781 Z M 92.632812 154.300781 " fill-opacity="1" fill-rule="evenodd"/></g><g clip-path="url(#5d140e9724)"><path fill="#ffca05" d="M 133.734375 133.820312 C 162.523438 111.90625 197.980469 108.105469 223.671875 121.5 L 207.519531 133.792969 C 184.070312 124.707031 153.972656 129.277344 129.148438 148.175781 C 112.347656 160.960938 100.9375 178.046875 95.804688 195.730469 C 99.101562 173.039062 112.289062 150.140625 133.734375 133.820312 Z M 133.734375 133.820312 " fill-opacity="1" fill-rule="evenodd"/></g><path fill="#231f20" d="M 62.324219 221.214844 C 39.558594 194.132812 36.171875 160.144531 50.886719 135.074219 L 63.65625 150.269531 C 53.566406 173.066406 57.871094 201.878906 77.5 225.234375 C 90.789062 241.039062 108.738281 251.542969 127.445312 255.992188 C 103.382812 253.445312 79.28125 241.390625 62.324219 221.214844 Z M 62.324219 221.214844 " fill-opacity="1" fill-rule="evenodd"/><g fill="#6b99d6" fill-opacity="1"><g transform="translate(115.995364, 209.012153)"><g><path d="M 4.4375 -35.234375 L 15.40625 -35.234375 C 20.394531 -35.234375 24.019531 -34.519531 26.28125 -33.09375 C 28.539062 -31.675781 29.671875 -29.414062 29.671875 -26.3125 C 29.671875 -24.207031 29.175781 -22.476562 28.1875 -21.125 C 27.195312 -19.78125 25.882812 -18.972656 24.25 -18.703125 L 24.25 -18.46875 C 26.476562 -17.96875 28.085938 -17.035156 29.078125 -15.671875 C 30.066406 -14.304688 30.5625 -12.488281 30.5625 -10.21875 C 30.5625 -7.007812 29.398438 -4.503906 27.078125 -2.703125 C 24.753906 -0.898438 21.601562 0 17.625 0 L 4.4375 0 Z M 11.90625 -21.28125 L 16.25 -21.28125 C 18.269531 -21.28125 19.734375 -21.59375 20.640625 -22.21875 C 21.546875 -22.84375 22 -23.878906 22 -25.328125 C 22 -26.679688 21.503906 -27.648438 20.515625 -28.234375 C 19.535156 -28.816406 17.972656 -29.109375 15.828125 -29.109375 L 11.90625 -29.109375 Z M 11.90625 -15.359375 L 11.90625 -6.171875 L 16.78125 -6.171875 C 18.832031 -6.171875 20.347656 -6.5625 21.328125 -7.34375 C 22.304688 -8.132812 22.796875 -9.34375 22.796875 -10.96875 C 22.796875 -13.894531 20.707031 -15.359375 16.53125 -15.359375 Z M 11.90625 -15.359375 "/></g></g></g><g fill="#6b99d6" fill-opacity="1"><g transform="translate(149.158692, 209.012153)"><g><path d="M 11.203125 0 L 3.859375 0 L 3.859375 -37.5 L 11.203125 -37.5 Z M 11.203125 0 "/></g></g></g><g fill="#6b99d6" fill-opacity="1"><g transform="translate(164.221976, 209.012153)"><g><path d="M 22.9375 0 L 21.953125 -3.453125 L 21.578125 -3.453125 C 20.785156 -2.191406 19.664062 -1.21875 18.21875 -0.53125 C 16.769531 0.144531 15.125 0.484375 13.28125 0.484375 C 10.113281 0.484375 7.726562 -0.363281 6.125 -2.0625 C 4.519531 -3.757812 3.71875 -6.195312 3.71875 -9.375 L 3.71875 -26.9375 L 11.0625 -26.9375 L 11.0625 -11.203125 C 11.0625 -9.265625 11.40625 -7.804688 12.09375 -6.828125 C 12.789062 -5.859375 13.894531 -5.375 15.40625 -5.375 C 17.457031 -5.375 18.941406 -6.0625 19.859375 -7.4375 C 20.773438 -8.8125 21.234375 -11.085938 21.234375 -14.265625 L 21.234375 -26.9375 L 28.578125 -26.9375 L 28.578125 0 Z M 22.9375 0 "/></g></g></g><g fill="#6b99d6" fill-opacity="1"><g transform="translate(196.662267, 209.012153)"><g><path d="M 15.015625 -22.21875 C 13.453125 -22.21875 12.226562 -21.722656 11.34375 -20.734375 C 10.46875 -19.742188 9.960938 -18.34375 9.828125 -16.53125 L 20.15625 -16.53125 C 20.113281 -18.34375 19.632812 -19.742188 18.71875 -20.734375 C 17.8125 -21.722656 16.578125 -22.21875 15.015625 -22.21875 Z M 16.046875 0.484375 C 11.710938 0.484375 8.320312 -0.710938 5.875 -3.109375 C 3.4375 -5.503906 2.21875 -8.894531 2.21875 -13.28125 C 2.21875 -17.789062 3.34375 -21.28125 5.59375 -23.75 C 7.851562 -26.21875 10.976562 -27.453125 14.96875 -27.453125 C 18.769531 -27.453125 21.734375 -26.363281 23.859375 -24.1875 C 25.984375 -22.019531 27.046875 -19.023438 27.046875 -15.203125 L 27.046875 -11.640625 L 9.671875 -11.640625 C 9.742188 -9.546875 10.359375 -7.910156 11.515625 -6.734375 C 12.671875 -5.566406 14.296875 -4.984375 16.390625 -4.984375 C 18.015625 -4.984375 19.546875 -5.148438 20.984375 -5.484375 C 22.429688 -5.828125 23.941406 -6.367188 25.515625 -7.109375 L 25.515625 -1.421875 C 24.234375 -0.773438 22.859375 -0.296875 21.390625 0.015625 C 19.929688 0.328125 18.148438 0.484375 16.046875 0.484375 Z M 16.046875 0.484375 "/></g></g></g><path stroke-linecap="butt" transform="matrix(0.75, 0, 0, 0.75, 113.813471, 154.330274)" fill="none" stroke-linejoin="miter" d="M 5.915372 23.012761 L 20.535164 23.012761 C 27.201832 23.012761 32.035165 23.960678 35.045582 25.856512 C 38.055999 27.752345 39.561207 30.76797 39.561207 34.903387 C 39.561207 37.710679 38.904957 40.012762 37.587249 41.814846 C 36.26954 43.611721 34.514332 44.695054 32.33204 45.059638 L 32.33204 45.382554 C 35.311207 46.044013 37.457041 47.288805 38.774749 49.111721 C 40.092457 50.92943 40.753916 53.351305 40.753916 56.372139 C 40.753916 60.658597 39.201832 64.002347 36.108082 66.398181 C 33.014332 68.799223 28.805998 70.002348 23.493498 70.002348 L 5.915372 70.002348 Z M 15.878914 41.622138 L 21.660165 41.622138 C 24.36329 41.622138 26.316415 41.205471 27.524748 40.366929 C 28.73829 39.533596 29.342457 38.148179 29.342457 36.221096 C 29.342457 34.42422 28.686207 33.132554 27.368498 32.351304 C 26.05079 31.570054 23.962248 31.17422 21.113289 31.17422 L 15.878914 31.17422 Z M 15.878914 49.528388 L 15.878914 61.773181 L 22.368498 61.773181 C 25.11329 61.773181 27.134123 61.247139 28.441415 60.200264 C 29.748707 59.14818 30.404957 57.538805 30.404957 55.377347 C 30.404957 51.476305 27.618498 49.528388 22.045581 49.528388 Z M 59.160167 70.002348 L 49.358083 70.002348 L 49.358083 19.991928 L 59.160167 19.991928 Z M 94.899753 70.002348 L 93.582044 65.403389 L 93.066419 65.403389 C 92.014336 67.075264 90.524752 68.366931 88.597669 69.278389 C 86.670585 70.189848 84.472669 70.642973 82.009127 70.642973 C 77.790377 70.642973 74.608085 69.512764 72.46746 67.252348 C 70.321626 64.991931 69.253918 61.741931 69.253918 57.497139 L 69.253918 34.070054 L 79.056002 34.070054 L 79.056002 55.05443 C 79.056002 57.64818 79.514335 59.590889 80.43621 60.887764 C 81.358085 62.184639 82.826835 62.830472 84.837252 62.830472 C 87.582044 62.830472 89.561211 61.919014 90.785169 60.08568 C 92.003919 58.252347 92.618503 55.215888 92.618503 50.976305 L 92.618503 34.070054 L 102.420586 34.070054 L 102.420586 70.002348 Z M 127.576838 40.366929 C 125.498713 40.366929 123.873713 41.028388 122.691421 42.346096 C 121.514338 43.663804 120.842463 45.533596 120.670588 47.955471 L 134.425797 47.955471 C 134.378922 45.533596 133.748714 43.663804 132.529963 42.346096 C 131.306005 41.028388 129.654963 40.366929 127.576838 40.366929 Z M 128.962255 70.642973 C 123.175796 70.642973 118.654963 69.044014 115.399754 65.856514 C 112.139337 62.663806 110.514337 58.142972 110.514337 52.294013 C 110.514337 46.27318 112.019545 41.616929 115.029962 38.325262 C 118.040379 35.038804 122.201838 33.39297 127.514338 33.39297 C 132.592463 33.39297 136.545589 34.840887 139.373714 37.731512 C 142.201839 40.627346 143.613298 44.622138 143.613298 49.721096 L 143.613298 54.476305 L 120.441421 54.476305 C 120.550796 57.262764 121.373713 59.434639 122.920588 61.002347 C 124.462255 62.564847 126.623713 63.346097 129.410172 63.346097 C 131.57163 63.346097 133.618505 63.122139 135.550797 62.674222 C 137.47788 62.221097 139.493506 61.502347 141.592464 60.517972 L 141.592464 68.101306 C 139.878922 68.960681 138.045589 69.596098 136.092464 70.017973 C 134.144547 70.434639 131.769547 70.642973 128.962255 70.642973 Z M 128.962255 70.642973 " stroke="#004aad" stroke-width="2.468528" stroke-opacity="1" stroke-miterlimit="4"/><g fill="#ffe582" fill-opacity="1"><g transform="translate(232.711338, 211.856632)"><g><path d="M 5.0625 0 L 5.0625 -40.203125 L 13.59375 -40.203125 L 13.59375 0 Z M 5.0625 0 "/></g></g></g><g fill="#ffe582" fill-opacity="1"><g transform="translate(251.355078, 211.856632)"><g><path d="M 32.78125 0 L 24.390625 0 L 24.390625 -17.953125 C 24.390625 -20.171875 23.992188 -21.832031 23.203125 -22.9375 C 22.421875 -24.050781 21.164062 -24.609375 19.4375 -24.609375 C 17.09375 -24.609375 15.398438 -23.820312 14.359375 -22.25 C 13.316406 -20.6875 12.796875 -18.09375 12.796875 -14.46875 L 12.796875 0 L 4.40625 0 L 4.40625 -30.75 L 10.8125 -30.75 L 11.9375 -26.8125 L 12.40625 -26.8125 C 13.34375 -28.300781 14.628906 -29.425781 16.265625 -30.1875 C 17.910156 -30.945312 19.773438 -31.328125 21.859375 -31.328125 C 25.441406 -31.328125 28.15625 -30.359375 30 -28.421875 C 31.851562 -26.492188 32.78125 -23.703125 32.78125 -20.046875 Z M 32.78125 0 "/></g></g></g><g fill="#ffe582" fill-opacity="1"><g transform="translate(288.367575, 211.856632)"><g><path d="M 12.453125 -16.71875 L 16.125 -21.390625 L 24.71875 -30.75 L 34.1875 -30.75 L 21.96875 -17.40625 L 34.9375 0 L 25.25 0 L 16.390625 -12.453125 L 12.796875 -9.578125 L 12.796875 0 L 4.40625 0 L 4.40625 -42.796875 L 12.796875 -42.796875 L 12.796875 -23.703125 L 12.34375 -16.71875 Z M 12.453125 -16.71875 "/></g></g></g><path stroke-linecap="butt" transform="matrix(0.855707, 0, 0, 0.855707, 230.221924, 149.467754)" fill="none" stroke-linejoin="miter" d="M 5.912454 69.999965 L 5.912454 23.01303 L 15.87772 23.01303 L 15.87772 69.999965 Z M 60.0983 69.999965 L 50.292808 69.999965 L 50.292808 49.014932 C 50.292808 46.422046 49.831749 44.477381 48.914196 43.180938 C 47.992078 41.884495 46.522167 41.236273 44.509028 41.236273 C 41.765499 41.236273 39.784314 42.153826 38.565475 43.984367 C 37.342071 45.814909 36.730369 48.850594 36.730369 53.095989 L 36.730369 69.999965 L 26.929441 69.999965 L 26.929441 34.069316 L 34.415944 34.069316 L 35.735212 38.666212 L 36.283005 38.666212 C 37.374026 36.931534 38.880456 35.616831 40.797731 34.726668 C 42.715006 33.836504 44.897048 33.393705 47.339291 33.393705 C 51.516212 33.393705 54.688846 34.52581 56.852628 36.785456 C 59.016409 39.045102 60.0983 42.309034 60.0983 46.572689 Z M 79.599727 50.457453 L 83.872512 44.997784 L 93.933641 34.069316 L 104.989927 34.069316 L 90.719923 49.654024 L 105.857266 69.999965 L 94.545343 69.999965 L 84.196622 55.442369 L 79.987747 58.81586 L 79.987747 69.999965 L 70.182254 69.999965 L 70.182254 19.991039 L 79.987747 19.991039 L 79.987747 42.295339 L 79.471909 50.457453 Z M 79.599727 50.457453 " stroke="#ffca05" stroke-width="2.468528" stroke-opacity="1" stroke-miterlimit="4"/><g fill="#808080" fill-opacity="1"><g transform="translate(137.143384, 237.544715)"><g><path d="M 8.4375 0 L 7.609375 -2.71875 L 3.4375 -2.71875 L 2.609375 0 L 0 0 L 4.03125 -11.46875 L 7 -11.46875 L 11.046875 0 Z M 7.03125 -4.75 C 6.257812 -7.21875 5.828125 -8.613281 5.734375 -8.9375 C 5.640625 -9.257812 5.570312 -9.515625 5.53125 -9.703125 C 5.351562 -9.035156 4.859375 -7.382812 4.046875 -4.75 Z M 7.03125 -4.75 "/></g></g></g><g fill="#808080" fill-opacity="1"><g transform="translate(148.179756, 237.544715)"><g><path d="M 3.640625 0 L 1.25 0 L 1.25 -12.15625 L 3.640625 -12.15625 Z M 3.640625 0 "/></g></g></g><g fill="#808080" fill-opacity="1"><g transform="translate(153.061382, 237.544715)"><g><path d="M 7.4375 0 L 7.125 -1.125 L 7 -1.125 C 6.738281 -0.71875 6.375 -0.398438 5.90625 -0.171875 C 5.4375 0.046875 4.90625 0.15625 4.3125 0.15625 C 3.28125 0.15625 2.503906 -0.117188 1.984375 -0.671875 C 1.460938 -1.222656 1.203125 -2.015625 1.203125 -3.046875 L 1.203125 -8.734375 L 3.59375 -8.734375 L 3.59375 -3.640625 C 3.59375 -3.003906 3.703125 -2.53125 3.921875 -2.21875 C 4.148438 -1.90625 4.507812 -1.75 5 -1.75 C 5.664062 -1.75 6.144531 -1.96875 6.4375 -2.40625 C 6.738281 -2.851562 6.890625 -3.59375 6.890625 -4.625 L 6.890625 -8.734375 L 9.265625 -8.734375 L 9.265625 0 Z M 7.4375 0 "/></g></g></g><g fill="#808080" fill-opacity="1"><g transform="translate(163.574439, 237.544715)"><g><path d="M 8.859375 -8.734375 L 8.859375 -7.53125 L 7.484375 -7.171875 C 7.734375 -6.785156 7.859375 -6.347656 7.859375 -5.859375 C 7.859375 -4.921875 7.53125 -4.191406 6.875 -3.671875 C 6.226562 -3.148438 5.320312 -2.890625 4.15625 -2.890625 L 3.734375 -2.90625 L 3.375 -2.953125 C 3.132812 -2.765625 3.015625 -2.554688 3.015625 -2.328125 C 3.015625 -1.984375 3.453125 -1.8125 4.328125 -1.8125 L 5.8125 -1.8125 C 6.769531 -1.8125 7.5 -1.601562 8 -1.1875 C 8.5 -0.78125 8.75 -0.175781 8.75 0.625 C 8.75 1.644531 8.320312 2.4375 7.46875 3 C 6.625 3.5625 5.40625 3.84375 3.8125 3.84375 C 2.59375 3.84375 1.660156 3.628906 1.015625 3.203125 C 0.367188 2.785156 0.046875 2.191406 0.046875 1.421875 C 0.046875 0.898438 0.207031 0.457031 0.53125 0.09375 C 0.863281 -0.257812 1.347656 -0.507812 1.984375 -0.65625 C 1.742188 -0.757812 1.53125 -0.929688 1.34375 -1.171875 C 1.164062 -1.410156 1.078125 -1.660156 1.078125 -1.921875 C 1.078125 -2.253906 1.171875 -2.53125 1.359375 -2.75 C 1.554688 -2.976562 1.835938 -3.195312 2.203125 -3.40625 C 1.742188 -3.601562 1.378906 -3.921875 1.109375 -4.359375 C 0.835938 -4.796875 0.703125 -5.3125 0.703125 -5.90625 C 0.703125 -6.863281 1.007812 -7.601562 1.625 -8.125 C 2.25 -8.644531 3.140625 -8.90625 4.296875 -8.90625 C 4.535156 -8.90625 4.820312 -8.878906 5.15625 -8.828125 C 5.5 -8.785156 5.71875 -8.753906 5.8125 -8.734375 Z M 2.109375 1.234375 C 2.109375 1.566406 2.265625 1.828125 2.578125 2.015625 C 2.898438 2.203125 3.34375 2.296875 3.90625 2.296875 C 4.757812 2.296875 5.425781 2.175781 5.90625 1.9375 C 6.394531 1.707031 6.640625 1.390625 6.640625 0.984375 C 6.640625 0.648438 6.492188 0.421875 6.203125 0.296875 C 5.921875 0.171875 5.484375 0.109375 4.890625 0.109375 L 3.65625 0.109375 C 3.21875 0.109375 2.847656 0.210938 2.546875 0.421875 C 2.253906 0.628906 2.109375 0.898438 2.109375 1.234375 Z M 2.984375 -5.875 C 2.984375 -5.40625 3.085938 -5.03125 3.296875 -4.75 C 3.515625 -4.476562 3.847656 -4.34375 4.296875 -4.34375 C 4.742188 -4.34375 5.070312 -4.476562 5.28125 -4.75 C 5.488281 -5.03125 5.59375 -5.40625 5.59375 -5.875 C 5.59375 -6.925781 5.160156 -7.453125 4.296875 -7.453125 C 3.421875 -7.453125 2.984375 -6.925781 2.984375 -5.875 Z M 2.984375 -5.875 "/></g></g></g><g fill="#808080" fill-opacity="1"><g transform="translate(172.6113, 237.544715)"><g><path d="M 7.4375 0 L 7.125 -1.125 L 7 -1.125 C 6.738281 -0.71875 6.375 -0.398438 5.90625 -0.171875 C 5.4375 0.046875 4.90625 0.15625 4.3125 0.15625 C 3.28125 0.15625 2.503906 -0.117188 1.984375 -0.671875 C 1.460938 -1.222656 1.203125 -2.015625 1.203125 -3.046875 L 1.203125 -8.734375 L 3.59375 -8.734375 L 3.59375 -3.640625 C 3.59375 -3.003906 3.703125 -2.53125 3.921875 -2.21875 C 4.148438 -1.90625 4.507812 -1.75 5 -1.75 C 5.664062 -1.75 6.144531 -1.96875 6.4375 -2.40625 C 6.738281 -2.851562 6.890625 -3.59375 6.890625 -4.625 L 6.890625 -8.734375 L 9.265625 -8.734375 L 9.265625 0 Z M 7.4375 0 "/></g></g></g><g fill="#808080" fill-opacity="1"><g transform="translate(183.124357, 237.544715)"><g><path d="M 4.875 -7.203125 C 4.363281 -7.203125 3.960938 -7.039062 3.671875 -6.71875 C 3.390625 -6.40625 3.226562 -5.953125 3.1875 -5.359375 L 6.53125 -5.359375 C 6.519531 -5.953125 6.363281 -6.40625 6.0625 -6.71875 C 5.769531 -7.039062 5.375 -7.203125 4.875 -7.203125 Z M 5.203125 0.15625 C 3.796875 0.15625 2.695312 -0.226562 1.90625 -1 C 1.113281 -1.78125 0.71875 -2.882812 0.71875 -4.3125 C 0.71875 -5.769531 1.082031 -6.898438 1.8125 -7.703125 C 2.550781 -8.503906 3.566406 -8.90625 4.859375 -8.90625 C 6.085938 -8.90625 7.046875 -8.550781 7.734375 -7.84375 C 8.421875 -7.144531 8.765625 -6.175781 8.765625 -4.9375 L 8.765625 -3.78125 L 3.140625 -3.78125 C 3.160156 -3.101562 3.359375 -2.570312 3.734375 -2.1875 C 4.109375 -1.8125 4.632812 -1.625 5.3125 -1.625 C 5.84375 -1.625 6.34375 -1.675781 6.8125 -1.78125 C 7.28125 -1.894531 7.769531 -2.070312 8.28125 -2.3125 L 8.28125 -0.46875 C 7.863281 -0.257812 7.414062 -0.101562 6.9375 0 C 6.46875 0.101562 5.890625 0.15625 5.203125 0.15625 Z M 5.203125 0.15625 "/></g></g></g><g fill="#808080" fill-opacity="1"><g transform="translate(192.575173, 237.544715)"><g><path d="M 3.640625 0 L 1.25 0 L 1.25 -12.15625 L 3.640625 -12.15625 Z M 3.640625 0 "/></g></g></g><g fill="#808080" fill-opacity="1"><g transform="translate(197.456799, 237.544715)"><g/></g></g><g fill="#808080" fill-opacity="1"><g transform="translate(201.612034, 237.544715)"><g><path d="M 4.015625 0.15625 C 2.992188 0.15625 2.1875 -0.238281 1.59375 -1.03125 C 1.007812 -1.832031 0.71875 -2.941406 0.71875 -4.359375 C 0.71875 -5.785156 1.015625 -6.898438 1.609375 -7.703125 C 2.210938 -8.503906 3.035156 -8.90625 4.078125 -8.90625 C 5.179688 -8.90625 6.019531 -8.476562 6.59375 -7.625 L 6.671875 -7.625 C 6.554688 -8.269531 6.5 -8.847656 6.5 -9.359375 L 6.5 -12.15625 L 8.890625 -12.15625 L 8.890625 0 L 7.0625 0 L 6.59375 -1.140625 L 6.5 -1.140625 C 5.957031 -0.273438 5.128906 0.15625 4.015625 0.15625 Z M 4.859375 -1.75 C 5.460938 -1.75 5.90625 -1.925781 6.1875 -2.28125 C 6.476562 -2.632812 6.632812 -3.234375 6.65625 -4.078125 L 6.65625 -4.34375 C 6.65625 -5.28125 6.507812 -5.953125 6.21875 -6.359375 C 5.9375 -6.765625 5.46875 -6.96875 4.8125 -6.96875 C 4.28125 -6.96875 3.867188 -6.738281 3.578125 -6.28125 C 3.285156 -5.832031 3.140625 -5.179688 3.140625 -4.328125 C 3.140625 -3.460938 3.285156 -2.816406 3.578125 -2.390625 C 3.878906 -1.960938 4.304688 -1.75 4.859375 -1.75 Z M 4.859375 -1.75 "/></g></g></g><g fill="#808080" fill-opacity="1"><g transform="translate(211.734562, 237.544715)"><g><path d="M 4.875 -7.203125 C 4.363281 -7.203125 3.960938 -7.039062 3.671875 -6.71875 C 3.390625 -6.40625 3.226562 -5.953125 3.1875 -5.359375 L 6.53125 -5.359375 C 6.519531 -5.953125 6.363281 -6.40625 6.0625 -6.71875 C 5.769531 -7.039062 5.375 -7.203125 4.875 -7.203125 Z M 5.203125 0.15625 C 3.796875 0.15625 2.695312 -0.226562 1.90625 -1 C 1.113281 -1.78125 0.71875 -2.882812 0.71875 -4.3125 C 0.71875 -5.769531 1.082031 -6.898438 1.8125 -7.703125 C 2.550781 -8.503906 3.566406 -8.90625 4.859375 -8.90625 C 6.085938 -8.90625 7.046875 -8.550781 7.734375 -7.84375 C 8.421875 -7.144531 8.765625 -6.175781 8.765625 -4.9375 L 8.765625 -3.78125 L 3.140625 -3.78125 C 3.160156 -3.101562 3.359375 -2.570312 3.734375 -2.1875 C 4.109375 -1.8125 4.632812 -1.625 5.3125 -1.625 C 5.84375 -1.625 6.34375 -1.675781 6.8125 -1.78125 C 7.28125 -1.894531 7.769531 -2.070312 8.28125 -2.3125 L 8.28125 -0.46875 C 7.863281 -0.257812 7.414062 -0.101562 6.9375 0 C 6.46875 0.101562 5.890625 0.15625 5.203125 0.15625 Z M 5.203125 0.15625 "/></g></g></g><g fill="#808080" fill-opacity="1"><g transform="translate(221.185378, 237.544715)"><g/></g></g><g fill="#808080" fill-opacity="1"><g transform="translate(225.340613, 237.544715)"><g><path d="M 1.15625 -11 C 1.15625 -11.769531 1.585938 -12.15625 2.453125 -12.15625 C 3.316406 -12.15625 3.75 -11.769531 3.75 -11 C 3.75 -10.625 3.640625 -10.332031 3.421875 -10.125 C 3.203125 -9.925781 2.878906 -9.828125 2.453125 -9.828125 C 1.585938 -9.828125 1.15625 -10.21875 1.15625 -11 Z M 3.640625 0 L 1.25 0 L 1.25 -8.734375 L 3.640625 -8.734375 Z M 3.640625 0 "/></g></g></g><g fill="#808080" fill-opacity="1"><g transform="translate(230.222239, 237.544715)"><g><path d="M 9.078125 0 L 6.6875 0 L 6.6875 -5.109375 C 6.6875 -5.734375 6.582031 -6.203125 6.375 -6.515625 C 6.164062 -6.835938 5.832031 -7 5.375 -7 C 4.769531 -7 4.328125 -6.773438 4.046875 -6.328125 C 3.773438 -5.878906 3.640625 -5.140625 3.640625 -4.109375 L 3.640625 0 L 1.25 0 L 1.25 -8.734375 L 3.078125 -8.734375 L 3.390625 -7.625 L 3.53125 -7.625 C 3.757812 -8.019531 4.09375 -8.332031 4.53125 -8.5625 C 4.976562 -8.789062 5.488281 -8.90625 6.0625 -8.90625 C 7.375 -8.90625 8.257812 -8.476562 8.71875 -7.625 L 8.9375 -7.625 C 9.164062 -8.03125 9.507812 -8.34375 9.96875 -8.5625 C 10.425781 -8.789062 10.941406 -8.90625 11.515625 -8.90625 C 12.503906 -8.90625 13.25 -8.648438 13.75 -8.140625 C 14.257812 -7.628906 14.515625 -6.816406 14.515625 -5.703125 L 14.515625 0 L 12.125 0 L 12.125 -5.109375 C 12.125 -5.734375 12.019531 -6.203125 11.8125 -6.515625 C 11.601562 -6.835938 11.269531 -7 10.8125 -7 C 10.226562 -7 9.789062 -6.789062 9.5 -6.375 C 9.21875 -5.957031 9.078125 -5.296875 9.078125 -4.390625 Z M 9.078125 0 "/></g></g></g><g fill="#808080" fill-opacity="1"><g transform="translate(245.929345, 237.544715)"><g><path d="M 6.046875 0.15625 C 5.023438 0.15625 4.222656 -0.21875 3.640625 -0.96875 L 3.515625 -0.96875 C 3.597656 -0.226562 3.640625 0.195312 3.640625 0.3125 L 3.640625 3.84375 L 1.25 3.84375 L 1.25 -8.734375 L 3.1875 -8.734375 L 3.53125 -7.609375 L 3.640625 -7.609375 C 4.191406 -8.472656 5.015625 -8.90625 6.109375 -8.90625 C 7.140625 -8.90625 7.945312 -8.503906 8.53125 -7.703125 C 9.113281 -6.910156 9.40625 -5.804688 9.40625 -4.390625 C 9.40625 -3.453125 9.269531 -2.640625 9 -1.953125 C 8.726562 -1.265625 8.335938 -0.738281 7.828125 -0.375 C 7.328125 -0.0195312 6.734375 0.15625 6.046875 0.15625 Z M 5.34375 -7 C 4.757812 -7 4.332031 -6.816406 4.0625 -6.453125 C 3.789062 -6.085938 3.648438 -5.488281 3.640625 -4.65625 L 3.640625 -4.40625 C 3.640625 -3.46875 3.773438 -2.796875 4.046875 -2.390625 C 4.328125 -1.984375 4.769531 -1.78125 5.375 -1.78125 C 6.445312 -1.78125 6.984375 -2.660156 6.984375 -4.421875 C 6.984375 -5.273438 6.847656 -5.914062 6.578125 -6.34375 C 6.316406 -6.78125 5.90625 -7 5.34375 -7 Z M 5.34375 -7 "/></g></g></g><g fill="#808080" fill-opacity="1"><g transform="translate(256.051873, 237.544715)"><g><path d="M 6.125 -8.90625 C 6.445312 -8.90625 6.71875 -8.878906 6.9375 -8.828125 L 6.75 -6.59375 C 6.5625 -6.644531 6.328125 -6.671875 6.046875 -6.671875 C 5.285156 -6.671875 4.691406 -6.472656 4.265625 -6.078125 C 3.847656 -5.691406 3.640625 -5.148438 3.640625 -4.453125 L 3.640625 0 L 1.25 0 L 1.25 -8.734375 L 3.0625 -8.734375 L 3.40625 -7.265625 L 3.53125 -7.265625 C 3.800781 -7.753906 4.164062 -8.148438 4.625 -8.453125 C 5.082031 -8.753906 5.582031 -8.90625 6.125 -8.90625 Z M 6.125 -8.90625 "/></g></g></g><g fill="#808080" fill-opacity="1"><g transform="translate(263.315723, 237.544715)"><g><path d="M 4.875 -7.203125 C 4.363281 -7.203125 3.960938 -7.039062 3.671875 -6.71875 C 3.390625 -6.40625 3.226562 -5.953125 3.1875 -5.359375 L 6.53125 -5.359375 C 6.519531 -5.953125 6.363281 -6.40625 6.0625 -6.71875 C 5.769531 -7.039062 5.375 -7.203125 4.875 -7.203125 Z M 5.203125 0.15625 C 3.796875 0.15625 2.695312 -0.226562 1.90625 -1 C 1.113281 -1.78125 0.71875 -2.882812 0.71875 -4.3125 C 0.71875 -5.769531 1.082031 -6.898438 1.8125 -7.703125 C 2.550781 -8.503906 3.566406 -8.90625 4.859375 -8.90625 C 6.085938 -8.90625 7.046875 -8.550781 7.734375 -7.84375 C 8.421875 -7.144531 8.765625 -6.175781 8.765625 -4.9375 L 8.765625 -3.78125 L 3.140625 -3.78125 C 3.160156 -3.101562 3.359375 -2.570312 3.734375 -2.1875 C 4.109375 -1.8125 4.632812 -1.625 5.3125 -1.625 C 5.84375 -1.625 6.34375 -1.675781 6.8125 -1.78125 C 7.28125 -1.894531 7.769531 -2.070312 8.28125 -2.3125 L 8.28125 -0.46875 C 7.863281 -0.257812 7.414062 -0.101562 6.9375 0 C 6.46875 0.101562 5.890625 0.15625 5.203125 0.15625 Z M 5.203125 0.15625 "/></g></g></g><g fill="#808080" fill-opacity="1"><g transform="translate(272.76654, 237.544715)"><g><path d="M 7.34375 -2.59375 C 7.34375 -1.695312 7.03125 -1.015625 6.40625 -0.546875 C 5.789062 -0.078125 4.863281 0.15625 3.625 0.15625 C 2.988281 0.15625 2.445312 0.109375 2 0.015625 C 1.550781 -0.0664062 1.128906 -0.191406 0.734375 -0.359375 L 0.734375 -2.328125 C 1.179688 -2.117188 1.679688 -1.941406 2.234375 -1.796875 C 2.785156 -1.660156 3.273438 -1.59375 3.703125 -1.59375 C 4.566406 -1.59375 5 -1.84375 5 -2.34375 C 5 -2.53125 4.941406 -2.679688 4.828125 -2.796875 C 4.710938 -2.910156 4.515625 -3.039062 4.234375 -3.1875 C 3.953125 -3.34375 3.578125 -3.519531 3.109375 -3.71875 C 2.429688 -4 1.9375 -4.257812 1.625 -4.5 C 1.3125 -4.738281 1.082031 -5.007812 0.9375 -5.3125 C 0.789062 -5.625 0.71875 -6.007812 0.71875 -6.46875 C 0.71875 -7.238281 1.019531 -7.835938 1.625 -8.265625 C 2.226562 -8.691406 3.082031 -8.90625 4.1875 -8.90625 C 5.238281 -8.90625 6.257812 -8.675781 7.25 -8.21875 L 6.53125 -6.5 C 6.09375 -6.6875 5.679688 -6.835938 5.296875 -6.953125 C 4.921875 -7.078125 4.535156 -7.140625 4.140625 -7.140625 C 3.441406 -7.140625 3.09375 -6.945312 3.09375 -6.5625 C 3.09375 -6.351562 3.203125 -6.171875 3.421875 -6.015625 C 3.648438 -5.859375 4.148438 -5.625 4.921875 -5.3125 C 5.597656 -5.039062 6.09375 -4.785156 6.40625 -4.546875 C 6.726562 -4.304688 6.960938 -4.03125 7.109375 -3.71875 C 7.265625 -3.40625 7.34375 -3.03125 7.34375 -2.59375 Z M 7.34375 -2.59375 "/></g></g></g><g fill="#808080" fill-opacity="1"><g transform="translate(280.717723, 237.544715)"><g><path d="M 7.34375 -2.59375 C 7.34375 -1.695312 7.03125 -1.015625 6.40625 -0.546875 C 5.789062 -0.078125 4.863281 0.15625 3.625 0.15625 C 2.988281 0.15625 2.445312 0.109375 2 0.015625 C 1.550781 -0.0664062 1.128906 -0.191406 0.734375 -0.359375 L 0.734375 -2.328125 C 1.179688 -2.117188 1.679688 -1.941406 2.234375 -1.796875 C 2.785156 -1.660156 3.273438 -1.59375 3.703125 -1.59375 C 4.566406 -1.59375 5 -1.84375 5 -2.34375 C 5 -2.53125 4.941406 -2.679688 4.828125 -2.796875 C 4.710938 -2.910156 4.515625 -3.039062 4.234375 -3.1875 C 3.953125 -3.34375 3.578125 -3.519531 3.109375 -3.71875 C 2.429688 -4 1.9375 -4.257812 1.625 -4.5 C 1.3125 -4.738281 1.082031 -5.007812 0.9375 -5.3125 C 0.789062 -5.625 0.71875 -6.007812 0.71875 -6.46875 C 0.71875 -7.238281 1.019531 -7.835938 1.625 -8.265625 C 2.226562 -8.691406 3.082031 -8.90625 4.1875 -8.90625 C 5.238281 -8.90625 6.257812 -8.675781 7.25 -8.21875 L 6.53125 -6.5 C 6.09375 -6.6875 5.679688 -6.835938 5.296875 -6.953125 C 4.921875 -7.078125 4.535156 -7.140625 4.140625 -7.140625 C 3.441406 -7.140625 3.09375 -6.945312 3.09375 -6.5625 C 3.09375 -6.351562 3.203125 -6.171875 3.421875 -6.015625 C 3.648438 -5.859375 4.148438 -5.625 4.921875 -5.3125 C 5.597656 -5.039062 6.09375 -4.785156 6.40625 -4.546875 C 6.726562 -4.304688 6.960938 -4.03125 7.109375 -3.71875 C 7.265625 -3.40625 7.34375 -3.03125 7.34375 -2.59375 Z M 7.34375 -2.59375 "/></g></g></g><g fill="#808080" fill-opacity="1"><g transform="translate(288.668906, 237.544715)"><g><path d="M 3.15625 -4.390625 C 3.15625 -3.523438 3.296875 -2.867188 3.578125 -2.421875 C 3.859375 -1.984375 4.320312 -1.765625 4.96875 -1.765625 C 5.601562 -1.765625 6.054688 -1.984375 6.328125 -2.421875 C 6.609375 -2.859375 6.75 -3.515625 6.75 -4.390625 C 6.75 -5.253906 6.609375 -5.898438 6.328125 -6.328125 C 6.046875 -6.765625 5.585938 -6.984375 4.953125 -6.984375 C 4.316406 -6.984375 3.859375 -6.765625 3.578125 -6.328125 C 3.296875 -5.898438 3.15625 -5.253906 3.15625 -4.390625 Z M 9.1875 -4.390625 C 9.1875 -2.960938 8.8125 -1.847656 8.0625 -1.046875 C 7.3125 -0.242188 6.269531 0.15625 4.9375 0.15625 C 4.09375 0.15625 3.347656 -0.0234375 2.703125 -0.390625 C 2.066406 -0.765625 1.578125 -1.296875 1.234375 -1.984375 C 0.890625 -2.671875 0.71875 -3.472656 0.71875 -4.390625 C 0.71875 -5.816406 1.085938 -6.925781 1.828125 -7.71875 C 2.578125 -8.507812 3.628906 -8.90625 4.984375 -8.90625 C 5.816406 -8.90625 6.550781 -8.722656 7.1875 -8.359375 C 7.832031 -7.992188 8.328125 -7.46875 8.671875 -6.78125 C 9.015625 -6.101562 9.1875 -5.304688 9.1875 -4.390625 Z M 9.1875 -4.390625 "/></g></g></g><g fill="#808080" fill-opacity="1"><g transform="translate(298.572736, 237.544715)"><g><path d="M 6.125 -8.90625 C 6.445312 -8.90625 6.71875 -8.878906 6.9375 -8.828125 L 6.75 -6.59375 C 6.5625 -6.644531 6.328125 -6.671875 6.046875 -6.671875 C 5.285156 -6.671875 4.691406 -6.472656 4.265625 -6.078125 C 3.847656 -5.691406 3.640625 -5.148438 3.640625 -4.453125 L 3.640625 0 L 1.25 0 L 1.25 -8.734375 L 3.0625 -8.734375 L 3.40625 -7.265625 L 3.53125 -7.265625 C 3.800781 -7.753906 4.164062 -8.148438 4.625 -8.453125 C 5.082031 -8.753906 5.582031 -8.90625 6.125 -8.90625 Z M 6.125 -8.90625 "/></g></g></g><g fill="#808080" fill-opacity="1"><g transform="translate(305.836587, 237.544715)"><g><path d="M 6.796875 0 L 6.34375 -1.1875 L 6.28125 -1.1875 C 5.875 -0.6875 5.457031 -0.335938 5.03125 -0.140625 C 4.613281 0.0546875 4.0625 0.15625 3.375 0.15625 C 2.539062 0.15625 1.878906 -0.0820312 1.390625 -0.5625 C 0.910156 -1.039062 0.671875 -1.722656 0.671875 -2.609375 C 0.671875 -3.535156 0.992188 -4.21875 1.640625 -4.65625 C 2.296875 -5.101562 3.273438 -5.347656 4.578125 -5.390625 L 6.09375 -5.4375 L 6.09375 -5.828125 C 6.09375 -6.710938 5.640625 -7.15625 4.734375 -7.15625 C 4.035156 -7.15625 3.21875 -6.941406 2.28125 -6.515625 L 1.484375 -8.125 C 2.492188 -8.65625 3.609375 -8.921875 4.828125 -8.921875 C 6.003906 -8.921875 6.90625 -8.664062 7.53125 -8.15625 C 8.15625 -7.644531 8.46875 -6.867188 8.46875 -5.828125 L 8.46875 0 Z M 6.09375 -4.046875 L 5.171875 -4.015625 C 4.484375 -3.992188 3.96875 -3.867188 3.625 -3.640625 C 3.289062 -3.410156 3.125 -3.0625 3.125 -2.59375 C 3.125 -1.925781 3.507812 -1.59375 4.28125 -1.59375 C 4.832031 -1.59375 5.269531 -1.75 5.59375 -2.0625 C 5.925781 -2.382812 6.09375 -2.804688 6.09375 -3.328125 Z M 6.09375 -4.046875 "/></g></g></g><g fill="#808080" fill-opacity="1"><g transform="translate(315.498295, 237.544715)"><g><path d="M 7.34375 -2.59375 C 7.34375 -1.695312 7.03125 -1.015625 6.40625 -0.546875 C 5.789062 -0.078125 4.863281 0.15625 3.625 0.15625 C 2.988281 0.15625 2.445312 0.109375 2 0.015625 C 1.550781 -0.0664062 1.128906 -0.191406 0.734375 -0.359375 L 0.734375 -2.328125 C 1.179688 -2.117188 1.679688 -1.941406 2.234375 -1.796875 C 2.785156 -1.660156 3.273438 -1.59375 3.703125 -1.59375 C 4.566406 -1.59375 5 -1.84375 5 -2.34375 C 5 -2.53125 4.941406 -2.679688 4.828125 -2.796875 C 4.710938 -2.910156 4.515625 -3.039062 4.234375 -3.1875 C 3.953125 -3.34375 3.578125 -3.519531 3.109375 -3.71875 C 2.429688 -4 1.9375 -4.257812 1.625 -4.5 C 1.3125 -4.738281 1.082031 -5.007812 0.9375 -5.3125 C 0.789062 -5.625 0.71875 -6.007812 0.71875 -6.46875 C 0.71875 -7.238281 1.019531 -7.835938 1.625 -8.265625 C 2.226562 -8.691406 3.082031 -8.90625 4.1875 -8.90625 C 5.238281 -8.90625 6.257812 -8.675781 7.25 -8.21875 L 6.53125 -6.5 C 6.09375 -6.6875 5.679688 -6.835938 5.296875 -6.953125 C 4.921875 -7.078125 4.535156 -7.140625 4.140625 -7.140625 C 3.441406 -7.140625 3.09375 -6.945312 3.09375 -6.5625 C 3.09375 -6.351562 3.203125 -6.171875 3.421875 -6.015625 C 3.648438 -5.859375 4.148438 -5.625 4.921875 -5.3125 C 5.597656 -5.039062 6.09375 -4.785156 6.40625 -4.546875 C 6.726562 -4.304688 6.960938 -4.03125 7.109375 -3.71875 C 7.265625 -3.40625 7.34375 -3.03125 7.34375 -2.59375 Z M 7.34375 -2.59375 "/></g></g></g><path stroke-linecap="butt" transform="matrix(0.75, 0, 0, 0.75, 133.273371, 220.959859)" fill="none" stroke-linejoin="miter" d="M 16.286548 22.001439 L 15.182381 18.376439 L 9.630298 18.376439 L 8.526131 22.001439 L 5.046964 22.001439 L 10.421964 6.709772 L 14.369881 6.709772 L 19.765715 22.001439 Z M 14.411548 15.668106 C 13.390715 12.381647 12.81259 10.52748 12.68759 10.095189 C 12.557381 9.662897 12.463631 9.324355 12.411548 9.074355 C 12.182381 9.96498 11.526131 12.162897 10.442798 15.668106 Z M 24.604257 22.001439 L 21.427173 22.001439 L 21.427173 5.793105 L 24.604257 5.793105 Z M 36.187591 22.001439 L 35.760508 20.511856 L 35.593841 20.511856 C 35.250091 21.053523 34.770924 21.470189 34.145924 21.767064 C 33.520924 22.058731 32.807383 22.209773 32.010508 22.209773 C 30.640716 22.209773 29.609466 21.839981 28.916757 21.110814 C 28.224049 20.376439 27.875091 19.324356 27.875091 17.949356 L 27.875091 10.355605 L 31.052174 10.355605 L 31.052174 17.157689 C 31.052174 17.996231 31.203216 18.626439 31.500091 19.048314 C 31.796966 19.464981 32.270924 19.678523 32.927174 19.678523 C 33.812591 19.678523 34.458424 19.381647 34.854258 18.787897 C 35.250091 18.194147 35.448008 17.209772 35.448008 15.834772 L 35.448008 10.355605 L 38.625091 10.355605 L 38.625091 22.001439 Z M 52.088634 10.355605 L 52.088634 11.970189 L 50.265717 12.438939 C 50.59905 12.959772 50.765717 13.543105 50.765717 14.188939 C 50.765717 15.438939 50.328217 16.412897 49.458425 17.110814 C 48.588634 17.808731 47.375092 18.157689 45.828217 18.157689 L 45.2553 18.126439 L 44.78655 18.074356 C 44.463633 18.324356 44.296967 18.600397 44.296967 18.907689 C 44.296967 19.366022 44.8803 19.595189 46.046967 19.595189 L 48.026134 19.595189 C 49.302175 19.595189 50.276134 19.866023 50.948009 20.418106 C 51.619884 20.964981 51.953217 21.772273 51.953217 22.834773 C 51.953217 24.194148 51.385509 25.25144 50.250092 26.00144 C 49.114675 26.75144 47.484467 27.12644 45.359467 27.12644 C 43.734467 27.12644 42.494883 26.839981 41.635508 26.277481 C 40.781341 25.709773 40.34905 24.918106 40.34905 23.897273 C 40.34905 23.194148 40.5678 22.605606 41.0053 22.136856 C 41.4428 21.662898 42.088633 21.324356 42.932383 21.126439 C 42.609467 20.985814 42.323008 20.756648 42.078216 20.444148 C 41.838633 20.126439 41.713633 19.793106 41.713633 19.438939 C 41.713633 18.991022 41.843841 18.621231 42.09905 18.329564 C 42.359467 18.032689 42.729258 17.746231 43.213633 17.459772 C 42.604258 17.194147 42.119883 16.772272 41.760508 16.188939 C 41.406341 15.605606 41.22405 14.918106 41.22405 14.126439 C 41.22405 12.855605 41.640716 11.87123 42.463633 11.178522 C 43.291758 10.485814 44.47405 10.136855 46.0053 10.136855 C 46.333425 10.136855 46.718842 10.168105 47.166758 10.225397 C 47.614675 10.282689 47.901134 10.329564 48.026134 10.355605 Z M 43.09905 23.647273 C 43.09905 24.084773 43.312592 24.428523 43.729258 24.678523 C 44.151133 24.928523 44.739675 25.053523 45.494883 25.053523 C 46.635508 25.053523 47.526134 24.897273 48.171967 24.584773 C 48.8178 24.272273 49.140717 23.845189 49.140717 23.303523 C 49.140717 22.866023 48.948009 22.563939 48.5678 22.397273 C 48.187592 22.230606 47.593842 22.147273 46.796967 22.147273 L 45.151133 22.147273 C 44.5678 22.147273 44.083425 22.282689 43.687592 22.558731 C 43.296967 22.829564 43.09905 23.194148 43.09905 23.647273 Z M 44.2553 14.168105 C 44.2553 14.798314 44.401133 15.298314 44.687592 15.668106 C 44.979258 16.037897 45.416758 16.220189 46.0053 16.220189 C 46.604258 16.220189 47.041758 16.037897 47.3178 15.668106 C 47.593842 15.298314 47.734467 14.798314 47.734467 14.168105 C 47.734467 12.767064 47.156342 12.063939 46.0053 12.063939 C 44.838633 12.063939 44.2553 12.767064 44.2553 14.168105 Z M 62.250093 22.001439 L 61.823009 20.511856 L 61.656343 20.511856 C 61.317801 21.053523 60.838634 21.470189 60.213634 21.767064 C 59.588634 22.058731 58.875093 22.209773 58.078218 22.209773 C 56.708426 22.209773 55.677176 21.839981 54.984467 21.110814 C 54.286551 20.376439 53.942801 19.324356 53.942801 17.949356 L 53.942801 10.355605 L 57.119884 10.355605 L 57.119884 17.157689 C 57.119884 17.996231 57.265717 18.626439 57.567801 19.048314 C 57.864676 19.464981 58.338634 19.678523 58.994884 19.678523 C 59.880301 19.678523 60.526134 19.381647 60.921968 18.787897 C 61.317801 18.194147 61.510509 17.209772 61.510509 15.834772 L 61.510509 10.355605 L 64.687593 10.355605 L 64.687593 22.001439 Z M 72.843844 12.397272 C 72.171968 12.397272 71.640718 12.610814 71.26051 13.037897 C 70.880302 13.46498 70.661552 14.069147 70.60426 14.855606 L 75.062594 14.855606 C 75.046969 14.069147 74.843844 13.46498 74.44801 13.037897 C 74.052177 12.610814 73.515719 12.397272 72.843844 12.397272 Z M 73.29176 22.209773 C 71.41676 22.209773 69.953218 21.688939 68.895927 20.657689 C 67.838635 19.621231 67.312593 18.157689 67.312593 16.261856 C 67.312593 14.30873 67.802177 12.803522 68.776135 11.735814 C 69.750093 10.668105 71.099052 10.136855 72.82301 10.136855 C 74.468844 10.136855 75.750094 10.605605 76.66676 11.543105 C 77.583427 12.480605 78.041761 13.77748 78.041761 15.428522 L 78.041761 16.970189 L 70.531343 16.970189 C 70.567802 17.871231 70.833427 18.574356 71.333427 19.084772 C 71.833427 19.589981 72.536552 19.845189 73.437594 19.845189 C 74.140719 19.845189 74.802177 19.772273 75.427177 19.626439 C 76.052177 19.480606 76.703219 19.246231 77.38551 18.928522 L 77.38551 21.386856 C 76.828219 21.662898 76.234469 21.871231 75.60426 22.006648 C 74.974052 22.142064 74.203219 22.209773 73.29176 22.209773 Z M 83.796969 22.001439 L 80.619886 22.001439 L 80.619886 5.793105 L 83.796969 5.793105 Z M 96.35947 22.209773 C 94.989678 22.209773 93.916762 21.678523 93.135512 20.616023 C 92.354261 19.553522 91.963636 18.079564 91.963636 16.199356 C 91.963636 14.287897 92.35947 12.803522 93.156345 11.735814 C 93.95322 10.668105 95.04697 10.136855 96.442803 10.136855 C 97.906345 10.136855 99.026137 10.704564 99.79697 11.845189 L 99.901137 11.845189 C 99.739679 10.975397 99.661554 10.204564 99.661554 9.522272 L 99.661554 5.793105 L 102.849054 5.793105 L 102.849054 22.001439 L 100.411554 22.001439 L 99.79697 20.491023 L 99.661554 20.491023 C 98.937595 21.636856 97.838637 22.209773 96.35947 22.209773 Z M 97.474053 19.678523 C 98.286554 19.678523 98.880304 19.438939 99.260512 18.970189 C 99.635512 18.496231 99.843845 17.694147 99.880304 16.563939 L 99.880304 16.220189 C 99.880304 14.970189 99.687595 14.074355 99.302179 13.532689 C 98.916762 12.991022 98.286554 12.720189 97.42197 12.720189 C 96.713637 12.720189 96.161553 13.022272 95.770928 13.62123 C 95.375095 14.220189 95.182387 15.095189 95.182387 16.241022 C 95.182387 17.386856 95.380303 18.246231 95.776137 18.819147 C 96.17197 19.392064 96.73447 19.678523 97.474053 19.678523 Z M 110.989679 12.397272 C 110.317804 12.397272 109.786554 12.610814 109.406346 13.037897 C 109.026138 13.46498 108.807388 14.069147 108.750096 14.855606 L 113.20843 14.855606 C 113.192805 14.069147 112.989679 13.46498 112.593846 13.037897 C 112.198013 12.610814 111.661554 12.397272 110.989679 12.397272 Z M 111.437596 22.209773 C 109.562596 22.209773 108.099054 21.688939 107.041762 20.657689 C 105.989679 19.621231 105.458429 18.157689 105.458429 16.261856 C 105.458429 14.30873 105.948012 12.803522 106.921971 11.735814 C 107.901137 10.668105 109.250096 10.136855 110.968846 10.136855 C 112.614679 10.136855 113.89593 10.605605 114.812596 11.543105 C 115.729263 12.480605 116.187596 13.77748 116.187596 15.428522 L 116.187596 16.970189 L 108.677179 16.970189 C 108.713638 17.871231 108.979263 18.574356 109.479263 19.084772 C 109.979263 19.589981 110.682388 19.845189 111.583429 19.845189 C 112.286554 19.845189 112.948013 19.772273 113.573013 19.626439 C 114.198013 19.480606 114.849055 19.246231 115.531346 18.928522 L 115.531346 21.386856 C 114.974055 21.662898 114.380305 21.871231 113.750096 22.006648 C 113.119888 22.142064 112.349054 22.209773 111.437596 22.209773 Z M 124.171972 7.345188 C 124.171972 6.313938 124.750097 5.793105 125.901139 5.793105 C 127.057389 5.793105 127.630305 6.313938 127.630305 7.345188 C 127.630305 7.83998 127.48968 8.220188 127.198014 8.49623 C 126.911555 8.772272 126.479264 8.907688 125.901139 8.907688 C 124.750097 8.907688 124.171972 8.386855 124.171972 7.345188 Z M 127.484472 22.001439 L 124.307389 22.001439 L 124.307389 10.355605 L 127.484472 10.355605 Z M 141.24489 22.001439 L 138.067806 22.001439 L 138.067806 15.199356 C 138.067806 14.360814 137.927181 13.730605 137.645931 13.30873 C 137.364681 12.886855 136.921973 12.678522 136.317806 12.678522 C 135.505306 12.678522 134.916764 12.975397 134.546973 13.574355 C 134.177181 14.173314 133.994889 15.152481 133.994889 16.522272 L 133.994889 22.001439 L 130.817806 22.001439 L 130.817806 10.355605 L 133.244889 10.355605 L 133.671973 11.845189 L 133.849056 11.845189 C 134.161556 11.30873 134.614681 10.892064 135.203223 10.58998 C 135.791764 10.287897 136.468848 10.136855 137.234473 10.136855 C 138.979265 10.136855 140.156348 10.704564 140.77614 11.845189 L 141.05739 11.845189 C 141.36989 11.303522 141.828223 10.881647 142.437598 10.584772 C 143.041765 10.287897 143.729265 10.136855 144.49489 10.136855 C 145.812598 10.136855 146.812598 10.475397 147.489682 11.15248 C 148.166765 11.829564 148.505307 12.912897 148.505307 14.407689 L 148.505307 22.001439 L 145.317807 22.001439 L 145.317807 15.199356 C 145.317807 14.360814 145.177182 13.730605 144.895932 13.30873 C 144.614682 12.886855 144.171973 12.678522 143.567806 12.678522 C 142.786556 12.678522 142.208431 12.954564 141.823015 13.511855 C 141.437598 14.069147 141.24489 14.949356 141.24489 16.157689 Z M 158.156349 22.209773 C 156.786557 22.209773 155.713641 21.709773 154.937599 20.720189 L 154.770932 20.720189 C 154.880307 21.688939 154.937599 22.251439 154.937599 22.407689 L 154.937599 27.12644 L 151.760515 27.12644 L 151.760515 10.355605 L 154.343849 10.355605 L 154.791766 11.866022 L 154.937599 11.866022 C 155.682391 10.71498 156.781349 10.136855 158.239682 10.136855 C 159.614683 10.136855 160.692808 10.668105 161.468849 11.730605 C 162.244891 12.793105 162.635516 14.267064 162.635516 16.157689 C 162.635516 17.402481 162.453224 18.480606 162.088641 19.397272 C 161.724058 20.313939 161.203224 21.011856 160.531349 21.491023 C 159.859474 21.970189 159.067808 22.209773 158.156349 22.209773 Z M 157.218849 12.678522 C 156.432391 12.678522 155.859474 12.918105 155.500099 13.40248 C 155.140724 13.886855 154.953224 14.683731 154.937599 15.793106 L 154.937599 16.136856 C 154.937599 17.386856 155.125099 18.282689 155.494891 18.824356 C 155.864682 19.366022 156.453224 19.636856 157.260516 19.636856 C 158.682391 19.636856 159.395933 18.459772 159.395933 16.116022 C 159.395933 14.970189 159.218849 14.110814 158.869891 13.537897 C 158.520932 12.96498 157.968849 12.678522 157.218849 12.678522 Z M 171.755308 10.136855 C 172.1876 10.136855 172.546975 10.168105 172.828225 10.230605 L 172.588642 13.209772 C 172.333433 13.142064 172.020933 13.105605 171.651142 13.105605 C 170.640725 13.105605 169.849058 13.366022 169.28135 13.886855 C 168.71885 14.407689 168.432391 15.136856 168.432391 16.074356 L 168.432391 22.001439 L 165.260516 22.001439 L 165.260516 10.355605 L 167.661558 10.355605 L 168.130308 12.313939 L 168.286558 12.313939 C 168.651141 11.662897 169.135517 11.136855 169.7501 10.735814 C 170.364683 10.334772 171.036558 10.136855 171.755308 10.136855 Z M 179.765726 12.397272 C 179.09385 12.397272 178.5626 12.610814 178.182392 13.037897 C 177.802184 13.46498 177.583434 14.069147 177.526142 14.855606 L 181.984476 14.855606 C 181.968851 14.069147 181.765726 13.46498 181.369892 13.037897 C 180.974059 12.610814 180.437601 12.397272 179.765726 12.397272 Z M 180.213642 22.209773 C 178.338642 22.209773 176.8751 21.688939 175.817809 20.657689 C 174.760517 19.621231 174.234475 18.157689 174.234475 16.261856 C 174.234475 14.30873 174.724059 12.803522 175.698017 11.735814 C 176.671975 10.668105 178.020934 10.136855 179.744892 10.136855 C 181.390726 10.136855 182.671976 10.605605 183.588642 11.543105 C 184.505309 12.480605 184.963643 13.77748 184.963643 15.428522 L 184.963643 16.970189 L 177.453225 16.970189 C 177.489684 17.871231 177.755309 18.574356 178.255309 19.084772 C 178.755309 19.589981 179.458434 19.845189 180.359476 19.845189 C 181.062601 19.845189 181.724059 19.772273 182.349059 19.626439 C 182.974059 19.480606 183.625101 19.246231 184.307393 18.928522 L 184.307393 21.386856 C 183.750101 21.662898 183.156351 21.871231 182.526142 22.006648 C 181.895934 22.142064 181.125101 22.209773 180.213642 22.209773 Z M 195.666768 18.543106 C 195.666768 19.735814 195.25531 20.647273 194.421977 21.272273 C 193.593851 21.897273 192.354268 22.209773 190.698018 22.209773 C 189.854268 22.209773 189.130309 22.152481 188.531351 22.037898 C 187.937601 21.923314 187.375101 21.751439 186.854268 21.532689 L 186.854268 18.907689 C 187.448018 19.183731 188.109476 19.418106 188.849059 19.605606 C 189.588643 19.793106 190.239685 19.886856 190.802185 19.886856 C 191.958435 19.886856 192.531351 19.553522 192.531351 18.886856 C 192.531351 18.636856 192.458435 18.433731 192.302185 18.277481 C 192.151143 18.121231 191.885518 17.944147 191.510518 17.746231 C 191.135518 17.548314 190.635518 17.319147 190.010518 17.053522 C 189.114684 16.678522 188.458434 16.329564 188.036559 16.011856 C 187.619893 15.694147 187.312601 15.324356 187.119893 14.912897 C 186.932393 14.501439 186.833434 13.991022 186.833434 13.386855 C 186.833434 12.350397 187.234476 11.553522 188.036559 10.985814 C 188.838643 10.418105 189.979268 10.136855 191.448018 10.136855 C 192.854268 10.136855 194.218851 10.444147 195.541768 11.053522 L 194.583435 13.345189 C 194.000101 13.095189 193.458435 12.892064 192.948018 12.730605 C 192.44281 12.569147 191.927185 12.491022 191.395935 12.491022 C 190.458435 12.491022 189.989685 12.74623 189.989685 13.251439 C 189.989685 13.537897 190.140726 13.782689 190.44281 13.991022 C 190.744893 14.199355 191.406351 14.506647 192.427185 14.918106 C 193.338643 15.287897 194.00531 15.631647 194.427185 15.949356 C 194.854268 16.267064 195.166768 16.636856 195.364685 17.053522 C 195.56781 17.470189 195.666768 17.964981 195.666768 18.543106 Z M 206.270936 18.543106 C 206.270936 19.735814 205.854269 20.647273 205.026144 21.272273 C 204.19281 21.897273 202.953227 22.209773 201.302185 22.209773 C 200.453227 22.209773 199.734477 22.152481 199.135518 22.037898 C 198.53656 21.923314 197.979268 21.751439 197.458435 21.532689 L 197.458435 18.907689 C 198.046977 19.183731 198.713643 19.418106 199.453227 19.605606 C 200.19281 19.793106 200.843852 19.886856 201.406352 19.886856 C 202.557394 19.886856 203.135519 19.553522 203.135519 18.886856 C 203.135519 18.636856 203.057394 18.433731 202.906352 18.277481 C 202.750102 18.121231 202.489685 17.944147 202.114685 17.746231 C 201.739685 17.548314 201.239685 17.319147 200.614685 17.053522 C 199.718852 16.678522 199.062602 16.329564 198.640727 16.011856 C 198.218852 15.694147 197.916768 15.324356 197.72406 14.912897 C 197.531352 14.501439 197.437602 13.991022 197.437602 13.386855 C 197.437602 12.350397 197.838643 11.553522 198.640727 10.985814 C 199.44281 10.418105 200.578227 10.136855 202.052185 10.136855 C 203.453227 10.136855 204.817811 10.444147 206.145936 11.053522 L 205.187602 13.345189 C 204.604269 13.095189 204.057394 12.892064 203.552185 12.730605 C 203.041769 12.569147 202.526144 12.491022 202.000102 12.491022 C 201.062602 12.491022 200.593852 12.74623 200.593852 13.251439 C 200.593852 13.537897 200.744894 13.782689 201.046977 13.991022 C 201.34906 14.199355 202.010519 14.506647 203.031352 14.918106 C 203.937602 15.287897 204.604269 15.631647 205.031352 15.949356 C 205.453227 16.267064 205.765727 16.636856 205.968852 17.053522 C 206.166769 17.470189 206.270936 17.964981 206.270936 18.543106 Z M 211.276144 16.157689 C 211.276144 17.308731 211.468853 18.183731 211.843853 18.772272 C 212.224061 19.360814 212.838644 19.657689 213.692811 19.657689 C 214.541769 19.657689 215.151145 19.360814 215.520936 18.777481 C 215.895936 18.188939 216.078228 17.319147 216.078228 16.157689 C 216.078228 15.006647 215.890728 14.142064 215.515728 13.563939 C 215.140728 12.985814 214.526144 12.699355 213.671978 12.699355 C 212.828228 12.699355 212.213644 12.985814 211.838644 13.55873 C 211.463644 14.131647 211.276144 14.996231 211.276144 16.157689 Z M 219.328228 16.157689 C 219.328228 18.053522 218.828228 19.532689 217.828228 20.605606 C 216.828228 21.673314 215.437603 22.209773 213.651144 22.209773 C 212.536561 22.209773 211.546978 21.964981 210.692811 21.475398 C 209.838644 20.985814 209.182394 20.282689 208.724061 19.366022 C 208.265727 18.449356 208.036561 17.381647 208.036561 16.157689 C 208.036561 14.256647 208.536561 12.77748 209.526144 11.720189 C 210.520936 10.662897 211.916769 10.136855 213.713644 10.136855 C 214.833436 10.136855 215.817811 10.381647 216.671978 10.866022 C 217.526145 11.350397 218.182395 12.048314 218.640728 12.959772 C 219.099061 13.87123 219.328228 14.933731 219.328228 16.157689 Z M 228.453229 10.136855 C 228.880312 10.136855 229.239687 10.168105 229.526145 10.230605 L 229.286562 13.209772 C 229.026145 13.142064 228.713645 13.105605 228.349062 13.105605 C 227.333437 13.105605 226.54177 13.366022 225.97927 13.886855 C 225.411562 14.407689 225.130312 15.136856 225.130312 16.074356 L 225.130312 22.001439 L 221.953228 22.001439 L 221.953228 10.355605 L 224.359478 10.355605 L 224.828228 12.313939 L 224.984479 12.313939 C 225.343854 11.662897 225.833437 11.136855 226.44802 10.735814 C 227.062604 10.334772 227.72927 10.136855 228.453229 10.136855 Z M 239.031354 22.001439 L 238.416771 20.418106 L 238.333438 20.418106 C 237.802188 21.089981 237.250104 21.558731 236.682396 21.819148 C 236.119896 22.079564 235.380313 22.209773 234.468854 22.209773 C 233.354271 22.209773 232.474062 21.886856 231.828229 21.251439 C 231.187604 20.610814 230.864687 19.699356 230.864687 18.522272 C 230.864687 17.287897 231.296979 16.376439 232.161562 15.787897 C 233.026146 15.199356 234.333437 14.876439 236.073021 14.813939 L 238.093854 14.751439 L 238.093854 14.241022 C 238.093854 13.05873 237.489688 12.470189 236.281354 12.470189 C 235.354271 12.470189 234.260521 12.751439 233.000104 13.313939 L 231.948021 11.168105 C 233.291771 10.46498 234.776146 10.116022 236.406354 10.116022 C 237.968854 10.116022 239.166771 10.454564 240.000104 11.136855 C 240.833438 11.819147 241.250105 12.850397 241.250105 14.241022 L 241.250105 22.001439 Z M 238.093854 16.605606 L 236.864688 16.647272 C 235.942813 16.673314 235.255313 16.839981 234.802187 17.147272 C 234.354271 17.454564 234.125104 17.918106 234.125104 18.543106 C 234.125104 19.438939 234.640729 19.886856 235.666771 19.886856 C 236.406354 19.886856 236.994896 19.673314 237.432396 19.251439 C 237.875104 18.824356 238.093854 18.267064 238.093854 17.563939 Z M 252.645939 18.543106 C 252.645939 19.735814 252.229272 20.647273 251.401147 21.272273 C 250.567814 21.897273 249.32823 22.209773 247.677188 22.209773 C 246.82823 22.209773 246.104272 22.152481 245.510522 22.037898 C 244.911563 21.923314 244.354271 21.751439 243.833438 21.532689 L 243.833438 18.907689 C 244.42198 19.183731 245.088646 19.418106 245.82823 19.605606 C 246.567813 19.793106 247.218855 19.886856 247.781355 19.886856 C 248.932397 19.886856 249.510522 19.553522 249.510522 18.886856 C 249.510522 18.636856 249.432397 18.433731 249.281355 18.277481 C 249.125105 18.121231 248.864688 17.944147 248.489688 17.746231 C 248.114688 17.548314 247.614688 17.319147 246.989688 17.053522 C 246.093855 16.678522 245.432397 16.329564 245.01573 16.011856 C 244.593855 15.694147 244.286563 15.324356 244.099063 14.912897 C 243.906355 14.501439 243.812605 13.991022 243.812605 13.386855 C 243.812605 12.350397 244.213646 11.553522 245.01573 10.985814 C 245.817813 10.418105 246.95323 10.136855 248.427188 10.136855 C 249.82823 10.136855 251.192814 10.444147 252.520939 11.053522 L 251.562605 13.345189 C 250.979272 13.095189 250.432397 12.892064 249.927188 12.730605 C 249.416772 12.569147 248.901147 12.491022 248.375105 12.491022 C 247.437605 12.491022 246.968855 12.74623 246.968855 13.251439 C 246.968855 13.537897 247.119897 13.782689 247.42198 13.991022 C 247.724063 14.199355 248.385522 14.506647 249.406355 14.918106 C 250.312605 15.287897 250.979272 15.631647 251.406355 15.949356 C 251.82823 16.267064 252.14073 16.636856 252.343855 17.053522 C 252.541772 17.470189 252.645939 17.964981 252.645939 18.543106 Z M 252.645939 18.543106 " stroke="#eb008b" stroke-width="1.333344" stroke-opacity="1" stroke-miterlimit="4"/></svg>